<svg height='100px' width='100px'  fill="#95aac9" xmlns="http://www.w3.org/2000/svg" xmlns:xlink="http://www.w3.org/1999/xlink" version="1.1" x="0px" y="0px" viewBox="0 0 100 100" style="enable-background:new 0 0 100 100;" xml:space="preserve"><style type="text/css">
	.st0{fill:#95aac9;}
</style><path class="st0" d="M90.2,47.4c-2.2-1.7-10.7-5.9-16.1-6.8c-5.4-0.9-8.9-8.7-8.9-8.7s0,21,9.6,37.1C21.2,45.3,13.4,31.3,13.4,31.3  c5.9,35.6,69.5,63.1,69.5,63.1C-12.8,62.8,8.4,8.1,8.4,8.1C7.3,27.4,39.1,39.9,39.1,39.9c-0.4-2.7,0.2-5.3,1.2-7.8  c3.7-8.7,12.8-13.9,22.2-13.2c9,0.7,11.4,2.5,11.4,2.5l5.2-5.5c0,0-5.2,5.5,1.2,8.3C87,27,86.7,31,88.1,34c1.1,2.5,4.5,4.4,5.8,5  c0.4,0.2,0.7,0.5,0.9,0.8C98.1,45.2,92.3,49,90.2,47.4z"></path></svg>